<mxfile host="drawio-plugin" modified="2022-04-07T18:44:21.364Z" agent="5.0 (X11; Linux x86_64) AppleWebKit/537.36 (KHTML, like Gecko) Chrome/89.0.4389.114 Safari/537.36" etag="bfzNQSfx7dZNFaohMx1j" version="15.5.4" type="embed"><diagram id="SOg0dnofQ8prf1K8eP5g" name="Page-1"><mxGraphModel dx="1651" dy="799" grid="1" gridSize="10" guides="1" tooltips="1" connect="1" arrows="1" fold="1" page="1" pageScale="1" pageWidth="827" pageHeight="1169" math="0" shadow="0"><root><mxCell id="0"/><mxCell id="1" parent="0"/><mxCell id="2" value="Left to right&lt;br&gt;" style="text;html=1;align=center;verticalAlign=middle;resizable=0;points=[];autosize=1;strokeColor=none;fillColor=none;" parent="1" vertex="1"><mxGeometry x="160" y="220" width="80" height="20" as="geometry"/></mxCell><mxCell id="5" value="" style="edgeStyle=orthogonalEdgeStyle;rounded=0;orthogonalLoop=1;jettySize=auto;html=1;" parent="1" source="3" target="4" edge="1"><mxGeometry relative="1" as="geometry"/></mxCell><mxCell id="3" value="code" style="rounded=1;whiteSpace=wrap;html=1;" parent="1" vertex="1"><mxGeometry x="200" y="280" width="120" height="60" as="geometry"/></mxCell><mxCell id="7" value="" style="edgeStyle=orthogonalEdgeStyle;rounded=0;orthogonalLoop=1;jettySize=auto;html=1;" parent="1" source="4" target="6" edge="1"><mxGeometry relative="1" as="geometry"/></mxCell><mxCell id="9" style="edgeStyle=orthogonalEdgeStyle;rounded=0;orthogonalLoop=1;jettySize=auto;html=1;entryX=0;entryY=0.5;entryDx=0;entryDy=0;" parent="1" source="4" target="8" edge="1"><mxGeometry relative="1" as="geometry"><Array as="points"><mxPoint x="560" y="310"/><mxPoint x="560" y="430"/></Array></mxGeometry></mxCell><mxCell id="21" style="edgeStyle=orthogonalEdgeStyle;rounded=0;orthogonalLoop=1;jettySize=auto;html=1;entryX=0;entryY=0.5;entryDx=0;entryDy=0;" parent="1" source="4" target="18" edge="1"><mxGeometry relative="1" as="geometry"><Array as="points"><mxPoint x="560" y="310"/><mxPoint x="560" y="550"/></Array></mxGeometry></mxCell><mxCell id="4" value="build" style="rounded=1;whiteSpace=wrap;html=1;" parent="1" vertex="1"><mxGeometry x="400" y="280" width="120" height="60" as="geometry"/></mxCell><mxCell id="6" value="push to artifact storage" style="rounded=1;whiteSpace=wrap;html=1;" parent="1" vertex="1"><mxGeometry x="600" y="280" width="120" height="60" as="geometry"/></mxCell><mxCell id="15" value="" style="edgeStyle=orthogonalEdgeStyle;rounded=0;orthogonalLoop=1;jettySize=auto;html=1;" parent="1" source="8" target="14" edge="1"><mxGeometry relative="1" as="geometry"/></mxCell><mxCell id="8" value="update version in gitops repo" style="rounded=1;whiteSpace=wrap;html=1;" parent="1" vertex="1"><mxGeometry x="600" y="400" width="120" height="60" as="geometry"/></mxCell><mxCell id="14" value="deploy" style="rounded=1;whiteSpace=wrap;html=1;" parent="1" vertex="1"><mxGeometry x="800" y="400" width="120" height="60" as="geometry"/></mxCell><mxCell id="16" value="Env 1" style="text;html=1;align=center;verticalAlign=middle;resizable=0;points=[];autosize=1;strokeColor=none;fillColor=none;" parent="1" vertex="1"><mxGeometry x="475" y="420" width="50" height="20" as="geometry"/></mxCell><mxCell id="17" value="" style="edgeStyle=orthogonalEdgeStyle;rounded=0;orthogonalLoop=1;jettySize=auto;html=1;" parent="1" source="18" target="19" edge="1"><mxGeometry relative="1" as="geometry"/></mxCell><mxCell id="18" value="update version in gitops repo" style="rounded=1;whiteSpace=wrap;html=1;" parent="1" vertex="1"><mxGeometry x="595" y="520" width="120" height="60" as="geometry"/></mxCell><mxCell id="19" value="deploy" style="rounded=1;whiteSpace=wrap;html=1;" parent="1" vertex="1"><mxGeometry x="795" y="520" width="120" height="60" as="geometry"/></mxCell><mxCell id="20" value="Env 2" style="text;html=1;align=center;verticalAlign=middle;resizable=0;points=[];autosize=1;strokeColor=none;fillColor=none;" parent="1" vertex="1"><mxGeometry x="470" y="540" width="50" height="20" as="geometry"/></mxCell><mxCell id="22" value="shared artifact" style="text;html=1;align=center;verticalAlign=middle;resizable=0;points=[];autosize=1;strokeColor=none;fillColor=none;" parent="1" vertex="1"><mxGeometry x="185" y="780" width="90" height="20" as="geometry"/></mxCell><mxCell id="23" value="" style="edgeStyle=orthogonalEdgeStyle;rounded=0;orthogonalLoop=1;jettySize=auto;html=1;" parent="1" source="24" target="26" edge="1"><mxGeometry relative="1" as="geometry"/></mxCell><mxCell id="24" value="code" style="rounded=1;whiteSpace=wrap;html=1;" parent="1" vertex="1"><mxGeometry x="200" y="810" width="120" height="60" as="geometry"/></mxCell><mxCell id="25" value="" style="edgeStyle=orthogonalEdgeStyle;rounded=0;orthogonalLoop=1;jettySize=auto;html=1;" parent="1" source="26" target="27" edge="1"><mxGeometry relative="1" as="geometry"/></mxCell><mxCell id="26" value="build" style="rounded=1;whiteSpace=wrap;html=1;" parent="1" vertex="1"><mxGeometry x="400" y="810" width="120" height="60" as="geometry"/></mxCell><mxCell id="27" value="push to artifact storage" style="rounded=1;whiteSpace=wrap;html=1;" parent="1" vertex="1"><mxGeometry x="600" y="810" width="120" height="60" as="geometry"/></mxCell><mxCell id="31" value="" style="edgeStyle=orthogonalEdgeStyle;rounded=0;orthogonalLoop=1;jettySize=auto;html=1;" parent="1" source="28" target="27" edge="1"><mxGeometry relative="1" as="geometry"/></mxCell><mxCell id="28" value="GitOps agent running on cloud" style="rounded=1;whiteSpace=wrap;html=1;" parent="1" vertex="1"><mxGeometry x="600" y="960" width="120" height="60" as="geometry"/></mxCell><mxCell id="30" value="" style="edgeStyle=orthogonalEdgeStyle;rounded=0;orthogonalLoop=1;jettySize=auto;html=1;" parent="1" source="29" target="28" edge="1"><mxGeometry relative="1" as="geometry"/></mxCell><mxCell id="29" value="version" style="rounded=1;whiteSpace=wrap;html=1;" parent="1" vertex="1"><mxGeometry x="405" y="960" width="120" height="60" as="geometry"/></mxCell><mxCell id="32" value="secret" style="text;html=1;align=center;verticalAlign=middle;resizable=0;points=[];autosize=1;strokeColor=none;fillColor=none;" vertex="1" parent="1"><mxGeometry x="665" y="1020" width="50" height="20" as="geometry"/></mxCell><mxCell id="33" value="secret" style="text;html=1;align=center;verticalAlign=middle;resizable=0;points=[];autosize=1;strokeColor=none;fillColor=none;" vertex="1" parent="1"><mxGeometry x="490" y="790" width="50" height="20" as="geometry"/></mxCell></root></mxGraphModel></diagram></mxfile>